<svg viewBox="0 0 480 360" xmlns="http://www.w3.org/2000/svg" role="img" aria-label="Education market illustration: graduation cap and book rendered as a blueprint drawing sheet">
<title>Education — K–12 &amp; higher ed campuses</title>
<defs>
<pattern id="grid" width="20" height="20" patternUnits="userSpaceOnUse">
<path d="M20 0H0V20" fill="none" stroke="#7FB4D6" stroke-width="0.5" opacity="0.08"/>
</pattern>
<clipPath id="card"><rect x="0" y="0" width="480" height="360" rx="18"/></clipPath>
</defs>
<g clip-path="url(#card)">
<rect width="480" height="360" fill="#0B2038"/>
<rect width="480" height="360" fill="url(#grid)"/>
<rect x="1" y="1" width="478" height="358" rx="17" fill="none" stroke="#E8A33D" stroke-opacity="0.25" stroke-width="2"/>
<g stroke="#BFE3F0" stroke-opacity="0.55" stroke-width="1.5" stroke-linecap="square" fill="none">
<path d="M24 38 V24 H38"/>
<path d="M442 24 H456 V38"/>
<path d="M24 322 V336 H38"/>
<path d="M456 322 V336 H442"/>
</g>
<g transform="translate(432,64)" stroke="#BFE3F0" stroke-opacity="0.6" fill="#BFE3F0" fill-opacity="0.6">
<line x1="0" y1="20" x2="0" y2="-6" stroke-width="1.5"/>
<path d="M0,-12 L5,-2 L-5,-2 Z" stroke="none"/>
<text x="0" y="34" font-family="ui-monospace, SFMono-Regular, Menlo, Consolas, monospace" font-size="9" text-anchor="middle" letter-spacing="1" stroke="none">N</text>
</g>
<circle cx="240" cy="175" r="96" fill="none" stroke="#BFE3F0" stroke-opacity="0.12" stroke-dasharray="3 6"/>

<!-- icon: graduation cap -->
<g>
<polygon points="240,108 306,140 240,168 174,140" fill="#E8A33D" fill-opacity="0.12" stroke="#E8A33D" stroke-width="4" stroke-linejoin="round"/>
<rect x="210" y="150" width="60" height="18" rx="4" fill="#0B2038" stroke="#BFE3F0" stroke-width="2"/>
<path d="M306,140 Q316,162 300,178" fill="none" stroke="#E8A33D" stroke-width="2.5"/>
<circle cx="300" cy="181" r="4" fill="#E8A33D"/>
<rect x="196" y="205" width="88" height="16" rx="2" fill="none" stroke="#BFE3F0" stroke-width="2"/>
<line x1="240" y1="205" x2="240" y2="221" stroke="#BFE3F0" stroke-width="1.5"/>
</g>

<line x1="40" y1="306" x2="440" y2="306" stroke="#E8A33D" stroke-opacity="0.3" stroke-width="1.5"/>
<text x="40" y="52" font-family="ui-monospace, SFMono-Regular, Menlo, Consolas, monospace" font-size="9" letter-spacing="3" fill="#BFE3F0" fill-opacity="0.45">MARKET SERIES</text>
<text x="40" y="72" font-family="ui-monospace, SFMono-Regular, Menlo, Consolas, monospace" font-size="16" font-weight="600" letter-spacing="0.5" fill="#DCEFF6">04 — EDUCATION</text>
<text x="40" y="326" font-family="ui-monospace, SFMono-Regular, Menlo, Consolas, monospace" font-size="9.5" letter-spacing="1.5" fill="#BFE3F0" fill-opacity="0.5">SCOPE: ARCH · MEP · CIVIL · STRUCT</text>
<text x="440" y="326" font-family="ui-monospace, SFMono-Regular, Menlo, Consolas, monospace" font-size="10.5" letter-spacing="1" fill="#E8A33D" text-anchor="end">SHEET A-04</text>
</g>
</svg>
