<svg viewBox="0 0 480 360" xmlns="http://www.w3.org/2000/svg" role="img" aria-label="Life Sciences market illustration: laboratory flask rendered as a blueprint drawing sheet">
<title>Life Sciences — labs &amp; research facilities</title>
<defs>
<pattern id="grid" width="20" height="20" patternUnits="userSpaceOnUse">
<path d="M20 0H0V20" fill="none" stroke="#7FB4D6" stroke-width="0.5" opacity="0.08"/>
</pattern>
<clipPath id="card"><rect x="0" y="0" width="480" height="360" rx="18"/></clipPath>
</defs>
<g clip-path="url(#card)">
<rect width="480" height="360" fill="#0B2038"/>
<rect width="480" height="360" fill="url(#grid)"/>
<rect x="1" y="1" width="478" height="358" rx="17" fill="none" stroke="#E8A33D" stroke-opacity="0.25" stroke-width="2"/>
<g stroke="#BFE3F0" stroke-opacity="0.55" stroke-width="1.5" stroke-linecap="square" fill="none">
<path d="M24 38 V24 H38"/>
<path d="M442 24 H456 V38"/>
<path d="M24 322 V336 H38"/>
<path d="M456 322 V336 H442"/>
</g>
<g transform="translate(432,64)" stroke="#BFE3F0" stroke-opacity="0.6" fill="#BFE3F0" fill-opacity="0.6">
<line x1="0" y1="20" x2="0" y2="-6" stroke-width="1.5"/>
<path d="M0,-12 L5,-2 L-5,-2 Z" stroke="none"/>
<text x="0" y="34" font-family="ui-monospace, SFMono-Regular, Menlo, Consolas, monospace" font-size="9" text-anchor="middle" letter-spacing="1" stroke="none">N</text>
</g>
<circle cx="240" cy="175" r="96" fill="none" stroke="#BFE3F0" stroke-opacity="0.12" stroke-dasharray="3 6"/>

<!-- icon: flask -->
<g>
<line x1="224" y1="95" x2="256" y2="95" stroke="#E8A33D" stroke-width="3"/>
<path d="M228,95 L228,150 L190,225 Q185,240 200,240 L280,240 Q295,240 290,225 L252,150 L252,95" fill="#E8A33D" fill-opacity="0.1" stroke="#E8A33D" stroke-width="4" stroke-linejoin="round"/>
<path d="M203,207 L277,207 L290,225 Q295,240 280,240 L200,240 Q185,240 190,225 Z" fill="#BFE3F0" fill-opacity="0.25" stroke="none"/>
<circle cx="223" cy="222" r="3" fill="#BFE3F0" fill-opacity="0.8"/>
<circle cx="245" cy="212" r="2.5" fill="#BFE3F0" fill-opacity="0.8"/>
<circle cx="257" cy="226" r="2" fill="#BFE3F0" fill-opacity="0.8"/>
<g stroke="#BFE3F0" stroke-width="1.5" fill="#BFE3F0" fill-opacity="0.7">
<circle cx="292" cy="108" r="3"/>
<circle cx="308" cy="118" r="3"/>
<circle cx="292" cy="128" r="3"/>
<line x1="292" y1="108" x2="308" y2="118"/>
<line x1="308" y1="118" x2="292" y2="128"/>
</g>
</g>

<line x1="40" y1="306" x2="440" y2="306" stroke="#E8A33D" stroke-opacity="0.3" stroke-width="1.5"/>
<text x="40" y="52" font-family="ui-monospace, SFMono-Regular, Menlo, Consolas, monospace" font-size="9" letter-spacing="3" fill="#BFE3F0" fill-opacity="0.45">MARKET SERIES</text>
<text x="40" y="72" font-family="ui-monospace, SFMono-Regular, Menlo, Consolas, monospace" font-size="16" font-weight="600" letter-spacing="0.5" fill="#DCEFF6">06 — LIFE SCIENCES</text>
<text x="40" y="326" font-family="ui-monospace, SFMono-Regular, Menlo, Consolas, monospace" font-size="9.5" letter-spacing="1.5" fill="#BFE3F0" fill-opacity="0.5">SCOPE: ARCH · MEP · CIVIL · STRUCT</text>
<text x="440" y="326" font-family="ui-monospace, SFMono-Regular, Menlo, Consolas, monospace" font-size="10.5" letter-spacing="1" fill="#E8A33D" text-anchor="end">SHEET A-06</text>
</g>
</svg>
